<?xml version="1.0" encoding="UTF-8"?>
<svg id="Laag_1" data-name="Laag 1" xmlns="http://www.w3.org/2000/svg" width="274.8105687mm" height="53.9222777mm" xmlns:xlink="http://www.w3.org/1999/xlink" viewBox="0 0 778.9906003 152.8505533">
  <defs>
    <style>
      .cls-1 {
        fill: none;
      }

      .cls-2 {
        fill: #fff;
      }

      .cls-3 {
        fill: url(#Nieuwe_verloopstaal_2);
      }

      .cls-4 {
        clip-path: url(#clippath);
      }
    </style>
    <clipPath id="clippath">
      <path class="cls-1" d="M.0012153,133.7662654c0,10.5292623,8.4963571,19.0842879,19.0256369,19.0842879s19.0843195-8.5550256,19.0843195-19.0842879-8.5550397-19.0255871-19.0843195-19.0255871S.0012153,123.2370031.0012153,133.7662654M55.9044774,133.7662654c0,10.5292623,8.4963564,19.0842879,19.0214439,19.0842879,10.5292763,0,19.0885119-8.5550256,19.0885119-19.0842879s-8.5592356-19.0255871-19.0885119-19.0255871c-10.5250874,0-19.0214474,8.4963248-19.0214474,19.0255871M111.803557,133.7662654c0,10.5292623,8.4963599,19.0842879,19.0256363,19.0842879s19.084316-8.5550256,19.084316-19.0842879-8.5550397-19.0255871-19.084316-19.0255871-19.0256363,8.4963248-19.0256363,19.0255871M167.706815,133.7662654c0,10.5292623,8.4963529,19.0842879,19.0256433,19.0842879,10.5250874,0,19.0843301-8.5550256,19.0843301-19.0842879s-8.5592286-19.0255871-19.0843301-19.0255871c-10.5292763,0-19.0256433,8.4963248-19.0256433,19.0255871M223.61008,133.7662654c0,10.5292623,8.492164,19.0842879,19.0214263,19.0842879,10.5292904,0,19.084316-8.5550256,19.084316-19.0842879s-8.5550537-19.0255871-19.084316-19.0255871-19.0214404,8.4963248-19.0214263,19.0255871Z"/>
    </clipPath>
    <linearGradient id="Nieuwe_verloopstaal_2" data-name="Nieuwe verloopstaal 2" x1="-286.7371456" y1="-389.1500683" x2="-282.545601" y2="-389.1500683" gradientTransform="translate(17903.4962972 24431.8206354) scale(62.4387016)" gradientUnits="userSpaceOnUse">
      <stop offset="0" stop-color="#445fa6"/>
      <stop offset=".0030909" stop-color="#445fa6"/>
      <stop offset=".429121" stop-color="#5ac2e8"/>
      <stop offset=".787364" stop-color="#b7c88d"/>
      <stop offset=".926264" stop-color="#ebda49"/>
      <stop offset="1" stop-color="#ebda49"/>
    </linearGradient>
  </defs>
  <path class="cls-2" d="M72.5941873,29.7141997c0,3.1395062-2.5568732,5.6963724-5.6964111,5.6963724H12.7801473V12.7801631h54.117629c3.1395379,0,5.6964111,2.5526843,5.6964111,5.6963795v11.2376572ZM85.3701124,29.7141997v-11.2376572c0-10.1855705-8.2867322-18.4765426-18.4723361-18.4765426H.0209145v3.6760216H0v72.9420885h12.7801473v-28.4315637h54.117629c10.1856039,0,18.4723361-8.2867744,18.4723361-18.4723431M174.6677957,34.0986033c0,3.1436951-2.5526562,5.6963689-5.6963408,5.6963689h-55.852956v-9.38078c0-3.1395045,2.5526492-5.6963795,5.6921238-5.6963795h50.1608323c3.1436986,0,5.6963408,2.5568732,5.6963408,5.6963795v3.6844111ZM187.443784,34.0986033v-3.6844075c0-10.1855705-8.2867955-18.4723537-18.4723291-18.4723537h-50.1608323c-10.1813166,0-18.4723361,8.2867814-18.4723361,18.4723537v27.1531376c0,10.1855617,8.2910195,18.476532,18.4723361,18.476532h63.5948854v-12.7801631h-63.5948854c-3.1394746,0-5.6921238-2.5526843-5.6921238-5.6963689v-4.9921946h55.852956c10.1855336,0,18.4723431-8.2867744,18.4723431-18.4765355M225.3189963,24.4411785h47.8889448v-12.7759742h-47.8889588c-10.1855336,0-18.4723431,8.2867744-18.4723431,18.4723449v46.0655998h12.7759883V30.1375527c0-3.1395045,2.5568732-5.6963707,5.6963408-5.6963707M365.0289513,29.7141997c0,3.1395062-2.5526984,5.6963724-5.6921519,5.6963724h-54.1721672V12.7801631h54.1721391c3.1394816,0,5.6921519,2.5526843,5.6921519,5.6963795v11.2376572h.0000281ZM377.8091426,29.7141997v-11.2376572c0-10.1855705-8.2867955-18.4765426-18.4723431-18.4765426h-66.8768458v3.6760216h-.0754845v72.9420885h12.7801912v-28.4315637h54.1721672c10.1855476,0,18.4723431-8.2867744,18.4723431-18.4723431M468.921779,34.0986033c0,3.1436951-2.5526984,5.6963689-5.69218,5.6963689h-55.8571449v-9.38078c0-3.1395045,2.5568873-5.6963795,5.6963408-5.6963795h50.1608041c3.1395098,0,5.69218,2.5568732,5.69218,5.6963795v3.6844111ZM481.7019421,34.0986033v-3.6844075c0-10.1855705-8.2867674-18.4723537-18.4723431-18.4723537h-50.1608041c-10.1855476,0-18.4723431,8.2867814-18.4723431,18.4723537v27.1531376c0,10.1855617,8.2867955,18.476532,18.4723431,18.476532h66.8768458v-12.7801631h-66.8768739c-3.1394816,0-5.6963408-2.5526843-5.6963408-5.6963689v-4.9921946h55.8571449c10.1855476,0,18.472315-8.2867744,18.472315-18.4765355M536.729179,76.0438654h32.4428846v-12.7801631h-32.4428846c-3.1395379,0-5.696397-2.5526843-5.696397-5.6963689V24.6423687h38.1392816v-12.7759663h-38.1392816V.1341212h-12.7801912v11.7322811h-22.0184291v12.7759663h22.0184291v32.9249647c0,10.1855617,8.2868236,18.476532,18.476532,18.476532M662.2212366,58.6613284c.0209726-.3646591.0544838-.7251399.0544838-1.093995V11.9963347h-12.7759742v45.5709987c0,3.1436846-2.5568592,5.6963689-5.6963408,5.6963689h-36.6974006c-3.1394816,0-5.6963408-2.5526843-5.6963408-5.6963689V11.9963347h-12.7759742v45.5709987c0,10.1855617,8.2868236,18.476532,18.472315,18.476532l55.1152318-.0964079v-17.2861291ZM778.9906003,75.9139252V30.3387393c0-10.1855705-8.2868236-18.4723361-18.472315-18.4723361h-77.9510305v18.0280316c-.004217.1467064-.0251334.2934092-.0251334.4443045v45.5751859h12.780135V30.3387393c0-3.1394975,2.5526421-5.6963707,5.6963408-5.6963707h23.3597203v51.2715565h12.7759742V24.6423687h23.3639373c3.1394816,0,5.6963408,2.5568732,5.6963408,5.6963707v45.5751859h12.7760304Z"/>
  <path class="cls-2" d="M291.1945124,151.5113776h36.261474v-6.5472637h-28.4190111v-8.2029472h24.9106251v-6.5472637h-24.9106251v-7.5825965h28.0040289v-6.5514596h-35.8464637v35.4315307h-.0000281ZM386.4610189,151.5113776h7.2179233v-35.4315237h-7.5280987v18.619053c0,.6874152.0251334,1.5718493.0754283,2.6574771.0544838,1.0814248.096429,2.003573.1299402,2.7580669h-.4107652c-.4820327-.5490972-1.0604662-1.169462-1.7311118-1.8568772-.6706737-.6874152-1.311997-1.3580749-1.9323477-2.0119649-.6203226-.6497011-1.1526501-1.1694479-1.6011716-1.5467019l-19.3903025-18.619053h-7.377214v35.4315237h7.5322876v-18.2040849c0-1.446098-.0209445-2.7245416-.0544838-3.8436946-.0335112-1.1149641-.0670505-1.8987943-.1005617-2.3472877h.3604702c.6203788.65389,1.4335313,1.5215544,2.4478915,2.6071681,1.0143602,1.0814248,1.9868034,2.0706516,2.9173575,2.9634495l19.4447863,18.8244356-.0000281.0000141ZM421.7374549,151.5113776h36.2572851v-6.5472637h-28.4190111v-8.2029472h24.914814v-6.5472637h-24.914814v-7.5825965h28.0082459v-6.5514596h-35.8464918v35.4315307h-.0000281ZM515.4027898,127.321707c0,1.4796373-.4401437,2.6910023-1.3161578,3.638298s-2.1250933,1.4167617-3.7389159,1.4167617h-18.0532002v-9.7454461h18.0532002c1.0982226,0,2.0287205.1802351,2.7832284.5407194.7586687.3604702,1.3245356.8928119,1.7017614,1.5969968.3814429.7083738.5700839,1.5592686.5700839,2.5526843M524.3266634,151.5113776l-7.5322595-14.1298602c2.2676283-1.0311299,3.9443126-2.4688501,5.0299403-4.3047688,1.0814107-1.8401076,1.6221442-3.8101553,1.6221442-5.9059544,0-2.0287345-.3939814-3.8772199-1.1862176-5.5454701-.7880191-1.6682502-1.9826145-3.0095695-3.5838423-4.0239298-1.5970108-1.0143602-3.6550255-1.5215474-6.1616179-1.5215474h-28.0585408v35.4315307h7.8383021v-12.6334532h16.7118528l6.4969547,12.6334532h8.8233401-.0000562ZM658.7342732,116.0798539h-8.9238737l-11.9124987,14.8005058h-.5155439l-11.7615859-14.8005128h-9.4394737l17.3322035,21.0962879v14.3352428h7.8382459v-14.3352428l17.3825265-21.0962809Z"/>
  <g class="cls-4">
    <rect class="cls-3" x=".0012153" y="114.7406502" width="261.714607" height="38.1099593"/>
  </g>
  <path class="cls-2" d="M592.6294658,145.3057448v-11.7557373h-17.7136841v6.8112793h10.9023438v5.0075684l-14.8994141.1380615c-2.913208,0-5.4449463-.3772583-7.586853-1.1317139-2.1460571-.7545166-3.8018188-1.9490967-4.967041-3.5754395-1.1652222-1.6305542-1.7478638-3.7850342-1.7478638-6.4592285v-1.2323608c0-1.9197388.3771973-3.5838013,1.1316528-4.9921875.7545166-1.4041748,1.8191528-2.5610352,3.1898193-3.4706421,1.3707275-.9095459,2.9928589-1.5802002,4.8623047-2.0077515,1.8693848-.4275513,3.9023438-.6412964,6.0944824-.6412964,1.7144165,0,3.3533325.1089478,4.9168091.3311157,1.5593262.2263184,2.9550171.586853,4.1915894,1.0814209,1.2323608.4987793,2.2131348,1.173645,2.9299316,2.0328979.5196533.6162109.7880249,1.3706665.930542,2.1838379h7.6497192c-.1299438-1.8149414-.5449829-3.4664307-1.4000244-4.8580322-1.0143433-1.6472778-2.4562378-3.0095825-4.3215332-4.0910034-1.8694458-1.0814209-4.0910034-1.8862305-6.6646118-2.4185181-2.5736084-.5323486-5.4196777-.7964478-8.538269-.7964478-4.8035889,0-8.9280396.687439-12.3735352,2.0581055-3.4455566,1.3706055-6.0778198,3.4202881-7.8969727,6.1448364-1.8190918,2.7287598-2.7287598,6.0988159-2.7287598,10.1101685,0,6.140686,1.7856445,10.7178955,5.3527222,13.7358398,3.5670166,3.0179443,8.9154663,4.5269165,16.0495605,4.5269165h22.6387329v-6.7316895h-.0016479Z"/>
</svg>